<svg width="458" height="72" viewBox="0 0 458 72" fill="none" xmlns="http://www.w3.org/2000/svg">
<path d="M38.5814 47.5113L55.4722 71H41.6165L26.1773 49.2268H11.9258V71H0.973196V6.47216H24.9897C34.7546 6.47216 41.7485 8.14364 45.9711 11.4866C50.2818 14.7416 52.4371 20.0639 52.4371 27.4536C52.4371 38.0983 47.8186 44.7842 38.5814 47.5113ZM25.3856 39.4619C31.4557 39.4619 35.6344 38.5381 37.9216 36.6907C40.2089 34.8433 41.3526 31.7203 41.3526 27.3216C41.3526 23.099 40.2089 20.2399 37.9216 18.7443C35.6344 17.1608 31.5436 16.3691 25.6495 16.3691H11.9258V39.4619H25.3856ZM112.429 50.9423H73.8974C74.1613 54.4612 75.7888 57.3203 78.7799 59.5196C81.771 61.7189 85.2459 62.8186 89.2046 62.8186C95.4507 62.8186 100.113 60.8832 103.192 57.0124L109.13 63.4784C103.852 69.0206 96.9462 71.7918 88.4129 71.7918C81.3751 71.7918 75.4809 69.4605 70.7304 64.7979C65.9799 60.1354 63.6046 53.9773 63.6046 46.3237C63.6046 38.846 66.0239 32.7759 70.8624 28.1134C75.7009 23.4509 81.551 21.1196 88.4129 21.1196C95.2747 21.1196 100.993 23.1869 105.568 27.3216C110.142 31.4564 112.429 36.9546 112.429 43.8165V50.9423ZM102.137 42.7608C102.137 38.8021 100.861 35.679 98.3098 33.3918C95.8466 31.1045 92.6356 29.9608 88.6768 29.9608C84.718 29.9608 81.2431 31.1485 78.2521 33.5237C75.349 35.899 73.8974 38.978 73.8974 42.7608H102.137ZM163.616 71H154.247V64.4021C150.112 69.3285 144.658 71.7918 137.884 71.7918C132.694 71.7918 128.427 70.3402 125.084 67.4371C121.829 64.446 120.202 60.5753 120.202 55.8247C120.202 51.0742 121.961 47.4674 125.48 45.0041C128.999 42.5409 133.838 41.3093 139.996 41.3093H153.455V39.4619C153.455 32.9519 149.805 29.6969 142.503 29.6969C137.928 29.6969 133.178 31.3684 128.251 34.7113L123.633 28.2454C129.703 23.4948 136.477 21.1196 143.954 21.1196C150.024 21.1196 154.819 22.6591 158.338 25.7381C161.857 28.7292 163.616 33.2598 163.616 39.3299V71ZM153.323 48.567H141.711C134.233 48.567 130.495 50.8983 130.495 55.5608C130.495 57.9361 131.418 59.7835 133.266 61.1031C135.113 62.3347 137.708 62.9505 141.051 62.9505C144.482 62.9505 147.385 62.0268 149.761 60.1794C152.136 58.244 153.323 55.7368 153.323 52.6577V48.567ZM174.848 46.4557C174.848 39.066 177.399 32.9959 182.501 28.2454C187.604 23.4948 193.894 21.1196 201.371 21.1196C208.761 21.1196 215.007 23.6708 220.11 28.7732L214.039 36.2948C209.817 32.6 205.55 30.7526 201.239 30.7526C196.841 30.7526 193.058 32.2041 189.891 35.1072C186.812 37.9223 185.272 41.5732 185.272 46.0598C185.272 50.6344 186.812 54.5052 189.891 57.6722C193.058 60.7512 196.929 62.2907 201.503 62.2907C206.078 62.2907 210.433 60.2234 214.567 56.0887L220.637 62.6866C214.391 68.7567 207.485 71.7918 199.92 71.7918C192.882 71.7918 186.944 69.4605 182.105 64.7979C177.267 60.0474 174.848 53.9333 174.848 46.4557ZM243.94 30.2247V55.1649C243.94 57.5402 244.555 59.4316 245.787 60.8392C247.107 62.1588 248.866 62.8186 251.065 62.8186C253.089 62.8186 255.2 61.7189 257.399 59.5196L261.622 66.9093C257.927 70.1643 253.925 71.7918 249.614 71.7918C245.127 71.7918 241.345 70.2522 238.265 67.1732C235.186 64.0062 233.647 59.9155 233.647 54.901V30.2247H227.445V21.9113H233.647V6.47216H243.94V21.9113H256.872V30.2247H243.94ZM282.301 16.633V34.3155H310.936V44.3443H282.301V71H271.348V6.47216H314.367L314.235 16.633H282.301ZM336.064 71H325.772V21.9113H336.064V71ZM324.452 7.39587C324.452 5.63642 325.068 4.14089 326.299 2.90928C327.619 1.58969 329.203 0.929893 331.05 0.929893C332.809 0.929893 334.305 1.58969 335.537 2.90928C336.856 4.14089 337.516 5.63642 337.516 7.39587C337.516 9.2433 336.856 10.8268 335.537 12.1464C334.305 13.378 332.809 13.9938 331.05 13.9938C329.203 13.9938 327.663 13.334 326.431 12.0144C325.112 10.7828 324.452 9.2433 324.452 7.39587ZM361.439 71H351.147V21.9113H361.439V30.7526C363.111 27.7615 365.398 25.4302 368.301 23.7588C371.292 21.9993 374.459 21.1196 377.802 21.1196C383.521 21.1196 388.051 22.835 391.394 26.266C394.737 29.6969 396.409 34.5794 396.409 40.9134V71H385.984V44.0804C385.984 35.0192 382.245 30.4887 374.767 30.4887C370.984 30.4887 367.817 31.7203 365.266 34.1835C362.715 36.5588 361.439 39.9457 361.439 44.3443V71ZM407.605 46.1918C407.605 38.8021 409.936 32.7759 414.598 28.1134C419.261 23.4509 424.979 21.1196 431.753 21.1196C438.263 21.1196 443.497 23.8907 447.456 29.433V2.5134H457.881V71H447.456V63.6103C443.761 69.0646 438.219 71.7918 430.829 71.7918C424.407 71.7918 418.909 69.4165 414.335 64.666C409.848 59.8275 407.605 53.6694 407.605 46.1918ZM433.073 62.5546C437.207 62.5546 440.682 61.0591 443.497 58.068C446.313 55.077 447.72 51.2502 447.72 46.5876C447.72 42.0131 446.269 38.1423 443.365 34.9753C440.55 31.8082 437.075 30.2247 432.941 30.2247C428.806 30.2247 425.243 31.8082 422.252 34.9753C419.349 38.0543 417.897 41.9251 417.897 46.5876C417.897 51.2502 419.393 55.077 422.384 58.068C425.375 61.0591 428.938 62.5546 433.073 62.5546Z" fill="url(#paint0_linear_159_8)"/>
<defs>
<linearGradient id="paint0_linear_159_8" x1="229" y1="71" x2="228.316" y2="10.0077" gradientUnits="userSpaceOnUse">
<stop stop-color="#2578FF"/>
<stop offset="1" stop-color="#68A1FF"/>
</linearGradient>
</defs>
</svg>
