<svg width="71" height="94" viewBox="0 0 71 94" fill="none" xmlns="http://www.w3.org/2000/svg">
<path d="M70.4375 94H55.125L33.6875 57.3125H13.75V94H0V0.25H33.5C40.5 0.25 46.5 1.39583 51.5 3.6875C56.5 5.97917 60.3542 9.25 63.0625 13.5C65.7708 17.75 67.125 22.8333 67.125 28.75C67.125 35.375 65.4375 40.9583 62.0625 45.5C58.6875 50.0417 53.9167 53.2708 47.75 55.1875L70.4375 94ZM13.75 45.6875H32.5625C38.9792 45.6875 44 44.2292 47.625 41.3125C51.25 38.3542 53.0625 34.25 53.0625 29C53.0625 23.7917 51.25 19.7292 47.625 16.8125C44.0417 13.8542 39.0208 12.375 32.5625 12.375H13.75V45.6875Z" fill="url(#paint0_linear_159_9)"/>
<defs>
<linearGradient id="paint0_linear_159_9" x1="34.5993" y1="110.5" x2="20.4906" y2="9.94045" gradientUnits="userSpaceOnUse">
<stop stop-color="#3B82F6"/>
<stop offset="1" stop-color="#70A6FF"/>
</linearGradient>
</defs>
</svg>
